<?xml version="1.0" encoding="UTF-8"?>
<svg id="Camada_1" data-name="Camada 1" xmlns="http://www.w3.org/2000/svg" viewBox="0 0 2000 1961.75">
  <defs>
    <style>
      .cls-1 {
        fill: #fff;
      }

      .cls-2 {
        fill: #005683;
      }

      .cls-3 {
        fill: #40a229;
      }
    </style>
  </defs>
  <path class="cls-3" d="M1649.46,809.72c0,172.45-67.22,329.19-176.88,445.47l-2.46,2.61c-.19.2-.37.39-.56.58l-153.25,162.02-316.31,334.41-318.36-336.98-137.26-145.29c-119.65-117.8-193.84-281.65-193.84-462.82,0-358.69,290.77-649.46,649.46-649.46s649.46,290.77,649.46,649.46Z"/>
  <path class="cls-2" d="M1317.33,1249.62v170.78l-316.31,334.41-318.36-336.98v-168.21c0-154.32,125.1-279.42,279.41-279.42h75.84c154.32,0,279.42,125.1,279.42,279.42Z"/>
  <circle class="cls-1" cx="1000" cy="717.03" r="191.56"/>
</svg>